# xmcd
#
# Track frame offsets:
#	150
#	10722
#	19247
#	29647
#	41732
#	52145
#	58907
#	69922
#	81752
#	92825
#
# Disc length: 1374 seconds
#
# Revision: 2
# Processed by: cddbd v1.5.1PL0 Copyright (c) Steve Scherf et al.
# Submitted via: dBpowerAMP V4.0
#
DISCID=84055c0a
DTITLE=WaylonJennings,Littlefield,TX - BurningMemories;ClassicSoundsInc,CSI7566
DYEAR=1900
DGENRE=country
TTITLE0=BurningMemories(WaylonJennings,Littlefield,TX)
TTITLE1=Abilene(WaylonJennings,Littlefield,TX)
TTITLE2=Money{That'sWhatIWant}(WaylonJennings,Littlefield,TX)
TTITLE3=Don'tThinkTwice,It'sAlright(BobDylan,AKARobertAllenZimmerman,DuluthMN;WaylonJennings,Littlefield,TX)
TTITLE4=Lorena(WaylonJennings,Littlefield,TX)
TTITLE5=It'sSoEasy(WaylonJennings,Littlefield,TX)
TTITLE6=DreamBaby(WaylonJennings,Littlefield,TX)
TTITLE7=Crying (WaylonJennings,Littlefield,TX)
TTITLE8=BigMamou(WaylonJennings,Littlefield,TX)
TTITLE9=WhiteLightning(WaylonJennings,Littlefield,TX)
EXTD=more info\nMillenniumMusicProjectFormat, syntax as follows:\nTitle{Subtitle}[info](Lyricist;Composer;Date,Artist,Location)[info]\ncorrections to: windking3@yahoo.com
EXTT0=
EXTT1=
EXTT2=
EXTT3=
EXTT4=
EXTT5=
EXTT6=
EXTT7=
EXTT8=
EXTT9=
PLAYORDER=
